<svg width="50" height="50" xmlns="http://www.w3.org/2000/svg">

 <g>
  <title>background</title>
  <rect fill="none" id="canvas_background" height="52" width="52" y="-1" x="-1"/>
 </g>
 <g>
  <title>Layer 1</title>
  <polygon stroke="null" id="svg_1" points="44.53125,28.342857360839844 51.599998474121094,26 44.53125,23.657142639160156 50.6678581237793,19.630355834960938 43.210716247558594,19.04464340209961 48.10446548461914,13.700000762939453 40.724998474121094,14.9446439743042 43.98750305175781,8.575000762939453 37.22946548461914,11.649999618530273 38.55000305175781,4.694642543792725 32.87946701049805,9.307143211364746 32.25803756713867,2.278571605682373 27.985715866088867,8.0625 25.5,1.3999996185302734 23.014286041259766,8.0625 18.74196434020996,2.278571605682373 18.12053680419922,9.307143211364746 12.450000762939453,4.694642543792725 13.770537376403809,11.649999618530273 7.012500762939453,8.575000762939453 10.275001525878906,14.9446439743042 2.895535469055176,13.700000762939453 7.7892866134643555,19.04464340209961 0.3321428894996643,19.630355834960938 6.46875,23.657142639160156 -0.6000003814697266,26 6.46875,28.342857360839844 0.3321428894996643,32.36964416503906 7.7892866134643555,32.95535659790039 2.895535469055176,38.30000305175781 10.275001525878906,37.055355072021484 7.012500762939453,43.42500305175781 13.770537376403809,40.349998474121094 12.450000762939453,47.305355072021484 18.12053680419922,42.6928596496582 18.74196434020996,49.721431732177734 23.014286041259766,43.9375 25.5,50.599998474121094 27.985715866088867,43.9375 32.25803756713867,49.721431732177734 32.87946701049805,42.6928596496582 38.55000305175781,47.305355072021484 37.22946548461914,40.349998474121094 43.98750305175781,43.42500305175781 40.724998474121094,37.055355072021484 48.10446548461914,38.30000305175781 43.210716247558594,32.95535659790039 50.6678581237793,32.36964416503906 "/>
 </g>
</svg>
